# AST/ASF file generated using VICON BodyLanguage
# -----------------------------------------------
:version 1.10
:name VICON
:units
  mass 1.0
  length 0.45
  angle deg
:documentation
   .ast/.asf automatically generated from VICON data using
   VICON BodyBuilder and BodyLanguage model FoxedUp or BRILLIANT.MOD
:root
   order TX TY TZ RX RY RZ
   axis XYZ
   position 0 0 0  
   orientation 0 0 0 
:bonedata
  begin
     id 1 
     name lhipjoint
     direction 0.646657 -0.683706 0.338203 
     length 2.4948 
     axis 0 0 0  XYZ
  end
  begin
     id 2 
     name lfemur
     direction 0.34202 -0.939693 0  
     length 6.79491  
     axis 0 0 20  XYZ
    dof rx ry rz
    limits (-160.0 20.0)
           (-70.0 70.0)
           (-60.0 70.0)
  end
  begin
     id 3 
     name ltibia
     direction 0.34202 -0.939693 0   
     length 7.56807   
     axis 0 0 20   XYZ
    dof rx
    limits (-10.0 170.0)
  end
  begin
     id 4 
     name lfoot
     direction 0.0679796 -0.186772 0.980048   
     length 2.53018   
     axis -90 7.62852e-016 20   XYZ
    dof rx rz
    limits (-45.0 90.0)
           (-70.0 20.0)
  end
  begin
     id 5 
     name ltoes
     direction 1.53625e-011 -4.21881e-011 1   
     length 1.26912   
     axis -90 7.62852e-016 20   XYZ
    dof rx
    limits (-90.0 20.0)
  end
  begin
     id 6 
     name rhipjoint
     direction -0.618868 -0.704065 0.348274   
     length 2.42265  
     axis 0 0 0  XYZ 
  end
  begin
     id 7 
     name rfemur
     direction -0.34202 -0.939693 0   
     length 6.73814   
     axis 0 0 -20   XYZ
    dof rx ry rz
    limits (-160.0 20.0)
           (-70.0 70.0)
           (-70.0 60.0)
  end
  begin
     id 8 
     name rtibia
     direction -0.34202 -0.939693 0   
     length 7.66799   
     axis 0 0 -20   XYZ
    dof rx
    limits (-10.0 170.0)
 end
 begin
     id 9 
     name rfoot
     direction -0.0727352 -0.199838 0.977125   
     length 2.57224  
     axis -90 -7.62852e-016 -20   XYZ
    dof rx rz
    limits (-45.0 90.0)
           (-20.0 70.0)
  end
  begin
     id 10 
     name rtoes
     direction -1.53501e-011 -4.21858e-011 1   
     length 1.28858   
     axis -90 -7.62852e-016 -20   XYZ
    dof rx
    limits (-90.0 20.0)
  end
  begin
     id 11 
     name lowerback
     direction -0.0172471 0.995767 -0.0902851   
     length 2.20206   
     axis 0 0 0   XYZ
    dof rx ry rz
    limits (-20.0 45.0)
           (-30.0 30.0)
           (-30.0 30.0)
  end
  begin
     id 12 
     name upperback
     direction -0.000110737 0.999714 0.0239043   
     length 2.19523   
     axis 0 0 0   XYZ
    dof rx ry rz
    limits (-20.0 45.0)
           (-30.0 30.0)
           (-30.0 30.0)
  end
  begin
     id 13 
     name thorax
     direction 0.00704869 0.997783 0.0661741   
     length 2.21977   
     axis 0 0 0   XYZ
    dof rx ry rz
    limits (-20.0 45.0)
           (-30.0 30.0)
           (-30.0 30.0)
  end
  begin
     id 14 
     name lowerneck
     direction -0.00407501 0.995527 0.0943846   
     length 1.83142   
     axis 0 0 0   XYZ
    dof rx ry rz
    limits (-20.0 45.0)
           (-30.0 30.0)
           (-30.0 30.0)
  end
  begin
     id 15 
     name upperneck
     direction 0.0640586 0.986486 -0.150807   
     length 1.84616   
     axis 0 0 0   XYZ
    dof rx ry rz
    limits (-20.0 45.0)
           (-30.0 30.0)
           (-30.0 30.0)
  end
  begin
     id 16
     name head
     direction 0.0188017 0.99791 -0.0618239  
     length 1.85932  
     axis 0 0 0   XYZ
    dof rx ry rz
    limits (-20.0 45.0)
           (-30.0 30.0)
           (-30.0 30.0)
  end
  begin
     id 17 
     name lclavicle
     direction 0.976074 0.206905 0.066852  
     length 3.81043  
     axis 0 0 0   XYZ
    dof ry rz
    limits (-20.0 10.0)
           (0.0 20.0)
  end
  begin
     id 18 
     name lhumerus
     direction 1 -4.48971e-011 1.86916e-027   
     length 5.37587   
     axis 180 -30 -90   XYZ
    dof rx ry rz
    limits (-60.0 90.0)
           (-90.0 90.0)
           (-90.0 90.0)
  end
  begin
     id 19
     name lradius
     direction 1 -4.48968e-011 1.69187e-027   
     length 3.35977   
     axis 180 -30 -90   XYZ
    dof rx
    limits (-10.0 170.0)
  end
  begin
     id 20
     name lwrist
     direction 1 -4.48968e-011 5.8978e-027   
     length 1.67988   
     axis -3.27506e-015 90 90   XYZ
    dof ry
    limits (-180.0 0.0)
 end
  begin
     id 21 
     name lhand
     direction 1 -4.49028e-011 1.18071e-026   
     length 0.561859   
     axis -7.52654e-015 90 90   XYZ
    dof rx rz
    limits (-90.0 90.0)
           (-45.0 45.0)
  end
  begin
     id 22 
     name lfingers
     direction 1 -4.48927e-011 2.35758e-026   
     length 0.452985   
     axis -1.50534e-014 90 90   XYZ
    dof rx
    limits (0.0 90.0)
  end
  begin
     id 23
     name lthumb
     direction 0.707107 -6.34898e-011 0.707107   
     length 0.650399   
     axis -90 45 5.69224e-014   XYZ
    dof rx rz
    limits (-45.0 45.0)
           (-45.0 45.0)
  end
  begin
     id 24 
     name rclavicle
     direction -0.988403 0.151789 0.00439714   
     length 3.6942  
     axis 0 0 0   XYZ 
    dof ry rz
    limits (-10.0 20.0)
           (-20.0 0.0)
  end
  begin
     id 25 
     name rhumerus
     direction -1 -4.48978e-011 1.62495e-027  
     length 5.22819   
     axis 180 30 90   XYZ
    dof rx ry rz
    limits (-90.0 60.0)
           (-90.0 90.0)
           (-90.0 90.0)
  end
  begin
     id 26 
     name rradius
     direction -1 -4.48961e-011 3.47796e-027   
     length 3.40764   
     axis 180 30 90   XYZ
    dof rx
    limits (-10.0 170.0)
  end
  begin
     id 27 
     name rwrist
     direction -1 -4.48949e-011 5.89602e-027   
     length 1.70382   
     axis -3.27506e-015 -90 -90   XYZ
    dof ry
    limits (-180.0 0.0)
  end
  begin
     id 28
     name rhand
     direction -1 -4.48977e-011 1.17973e-026   
     length 0.583255   
     axis -7.52654e-015 -90 -90   XYZ
    dof rx rz
    limits (-90.0 90.0)
           (-45.0 45.0)
  end
  begin
     id 29
     name rfingers
     direction -1 -4.49099e-011 2.36408e-026   
     length 0.470235   
     axis -1.50534e-014 -90 -90   XYZ
    dof rx
    limits (0.0 90.0)
  end
  begin
     id 30
     name rthumb
     direction -0.707107 -6.35011e-011 0.707107   
     length 0.675167   
     axis -90 -45 -5.69224e-014   XYZ
    dof rx rz
    limits (-45.0 45.0)
           (-45.0 45.0)
  end
:hierarchy
  begin
    root lhipjoint rhipjoint lowerback
    lhipjoint lfemur
    lfemur ltibia
    ltibia lfoot
    lfoot ltoes
    rhipjoint rfemur
    rfemur rtibia
    rtibia rfoot
    rfoot rtoes
    lowerback upperback
    upperback thorax
    thorax lowerneck lclavicle rclavicle
    lowerneck upperneck
    upperneck head
    lclavicle lhumerus
    lhumerus lradius
    lradius lwrist
    lwrist lhand lthumb
    lhand lfingers
    rclavicle rhumerus
    rhumerus rradius
    rradius rwrist
    rwrist rhand rthumb
    rhand rfingers
  end

#!OML:ASF G:\JayActor3\Patient Classification 1\Patient 1\Session 2\male.ASF
:FULLY-SPECIFIED
:DEGREES
1
root 48.6665 16.7562 -8.20229 12.7749 -84.4062 -11.5096
lowerback -5.44324 0.299082 -0.55024
upperback 1.75459 0.41508 0.496661
thorax 4.86318 0.18027 0.862814
lowerneck -11.3109 -3.99018 -3.1774
upperneck 7.35836 -5.77737 8.40664
head 4.39623 -2.48667 2.68783
rclavicle 2.4817e-015 -7.45443e-016
rhumerus -34.5121 -6.18417 -84.4451
rradius 26.6578
rwrist 0.909881
rhand -22.8325 5.12861
rfingers 7.12502
rthumb 3.60486 -24.8207
lclavicle 2.4817e-015 -7.45443e-016
lhumerus -29.7655 2.68212 86.808
lradius 24.9805
lwrist 6.53288
lhand -17.7571 17.6804
lfingers 7.12502
lthumb 8.50472 47.4891
rfemur -10.7292 -2.03351 23.0465
rtibia 32.4346
rfoot -24.2042 -8.14944
rtoes 20.4708
lfemur -4.84301 2.70704 -17.1716
ltibia 20.6948
lfoot -13.656 7.78766
ltoes -8.87062
2
root 48.6646 16.756 -8.20111 12.661 -84.4372 -11.3906
lowerback -5.46139 0.308087 -0.561481
upperback 1.75075 0.42799 0.497592
thorax 4.86917 0.186304 0.871447
lowerneck -11.3049 -3.9895 -3.20779
upperneck 7.37733 -5.77497 8.4231
head 4.40227 -2.48513 2.69805
rclavicle 7.76503e-016 -5.46658e-016
rhumerus -34.5197 -6.21922 -84.4004
rradius 26.6327
rwrist 0.947278
rhand -22.951 5.13155
rfingers 7.12502
rthumb 3.49037 -24.8196
lclavicle 7.76503e-016 -5.46658e-016
lhumerus -29.8221 2.61786 86.8517
lradius 25.0969
lwrist 6.59715
lhand -17.7431 17.7162
lfingers 7.12502
lthumb 8.51822 47.5244
rfemur -10.7239 -2.03556 23.0203
rtibia 32.4356
rfoot -24.3536 -8.40168
rtoes 19.2643
lfemur -4.81878 2.69492 -17.2002
ltibia 20.6802
lfoot -13.671 7.81323
ltoes -8.78041
3
root 48.6634 16.7569 -8.20104 12.7686 -84.428 -11.4732
lowerback -5.50222 0.306653 -0.547282
upperback 1.75568 0.425407 0.492904
thorax 4.89768 0.185383 0.85873
lowerneck -11.364 -3.99329 -3.1878
upperneck 7.42323 -5.78601 8.4227
head 4.42621 -2.48758 2.6927
rclavicle -1.32533e-014 2.98177e-015
rhumerus -34.5126 -6.24983 -84.3969
rradius 26.6351
rwrist 0.94056
rhand -22.812 4.95769
rfingers 7.12502
rthumb 3.62468 -24.9912
lclavicle -1.32533e-014 2.98177e-015
lhumerus -29.7684 2.65756 86.8354
lradius 25.0757
lwrist 6.55525
lhand -17.744 17.6215
lfingers 7.12502
lthumb 8.51739 47.4297
rfemur -10.7388 -2.03972 23.0311
rtibia 32.4131
rfoot -24.2152 -8.1715
rtoes 20.0439
lfemur -4.86212 2.68238 -17.1913
ltibia 20.7043
lfoot -13.6814 7.81923
ltoes -8.8554
4
root 48.66 16.756 -8.20272 13.2513 -84.4386 -11.9921
lowerback -5.50184 0.30887 -0.533689
upperback 1.7733 0.426085 0.516755
thorax 4.91575 0.185551 0.87597
lowerneck -11.356 -3.99143 -3.18571
upperneck 7.40967 -5.78215 8.41648
head 4.42024 -2.48645 2.69092
rclavicle 6.9233e-015 -3.97569e-016
rhumerus -34.5021 -6.25199 -84.3822
rradius 26.6052
rwrist 0.965737
rhand -22.8615 5.07382
rfingers 7.12502
rthumb 3.57685 -24.8759
lclavicle 6.9233e-015 -3.97569e-016
lhumerus -29.7261 2.55475 86.8823
lradius 25.0578
lwrist 6.69052
lhand -17.7587 17.603
lfingers 7.12502
lthumb 8.5032 47.4118
rfemur -10.6792 -1.96317 23.099
rtibia 32.3908
rfoot -24.2812 -8.3092
rtoes 19.7542
lfemur -4.82888 2.68988 -17.1283
ltibia 20.7271
lfoot -13.697 7.82939
ltoes -8.86037
5
root 48.6574 16.7558 -8.20371 13.6175 -84.4457 -12.3711
lowerback -5.51649 0.312468 -0.516702
upperback 1.78306 0.428964 0.530004
thorax 4.93423 0.187134 0.880613
lowerneck -11.3619 -3.99114 -3.18649
upperneck 7.41388 -5.7824 8.42081
head 4.42269 -2.48614 2.69226
rclavicle -4.1341e-015 2.88238e-015
rhumerus -34.5008 -6.26417 -84.3712
rradius 26.5897
rwrist 0.974952
rhand -22.8433 5.07039
rfingers 7.12502
rthumb 3.5944 -24.8791
lclavicle -4.1341e-015 2.88238e-015
lhumerus -29.6897 2.48169 86.9137
lradius 25.0449
lwrist 6.7773
lhand -17.7723 17.5684
lfingers 7.12502
lthumb 8.4901 47.3777
rfemur -10.6455 -1.91234 23.1469
rtibia 32.3628
rfoot -24.3092 -8.38316
rtoes 19.6103
lfemur -4.8284 2.6918 -17.0848
ltibia 20.7594
lfoot -13.7142 7.84149
ltoes -8.89174
